<svg width="35" height="17" viewBox="0 0 35 17" fill="none" xmlns="http://www.w3.org/2000/svg">
<path d="M9.54639 10.6782H11.4023V12.6777H9.54639V16H7.05469V12.6777H0.60498L0.533203 11.1602L6.97266 1.07031H9.54639V10.6782ZM3.14795 10.6782H7.05469V4.44385L6.87012 4.77197L3.14795 10.6782ZM15.7346 7.39697H17.2521C18.0178 7.39014 18.6228 7.19189 19.0671 6.80225C19.5183 6.4126 19.7438 5.84863 19.7438 5.11035C19.7438 4.39941 19.5559 3.84912 19.1799 3.45947C18.8107 3.06299 18.2434 2.86475 17.4777 2.86475C16.8078 2.86475 16.2575 3.05957 15.8269 3.44922C15.3962 3.83203 15.1809 4.33447 15.1809 4.95654H12.6892C12.6892 4.19092 12.8908 3.49365 13.2941 2.86475C13.7043 2.23584 14.2717 1.74707 14.9963 1.39844C15.7277 1.04297 16.5446 0.865234 17.447 0.865234C18.9372 0.865234 20.1062 1.24121 20.9538 1.99316C21.8083 2.73828 22.2355 3.77734 22.2355 5.11035C22.2355 5.78027 22.0202 6.4126 21.5896 7.00732C21.1657 7.59521 20.6154 8.03955 19.9387 8.34033C20.759 8.62061 21.3811 9.06152 21.8049 9.66309C22.2355 10.2646 22.4509 10.9824 22.4509 11.8164C22.4509 13.1562 21.9895 14.2227 21.0666 15.0156C20.1506 15.8086 18.944 16.2051 17.447 16.2051C16.0114 16.2051 14.8356 15.8223 13.9196 15.0566C13.0036 14.291 12.5456 13.2725 12.5456 12.001H15.0373C15.0373 12.6572 15.2561 13.1904 15.6936 13.6006C16.1379 14.0107 16.7326 14.2158 17.4777 14.2158C18.2502 14.2158 18.8586 14.0107 19.3029 13.6006C19.7473 13.1904 19.9694 12.5957 19.9694 11.8164C19.9694 11.0303 19.737 10.4253 19.2722 10.0015C18.8073 9.57764 18.1169 9.36572 17.2009 9.36572H15.7346V7.39697ZM31.6537 9.75537C30.8197 10.6372 29.8456 11.0781 28.7313 11.0781C27.4188 11.0781 26.3729 10.6201 25.5937 9.7041C24.8144 8.78125 24.4247 7.57129 24.4247 6.07422C24.4247 5.08984 24.6229 4.19775 25.0194 3.39795C25.4159 2.59814 25.9799 1.97607 26.7113 1.53174C27.4428 1.0874 28.2904 0.865234 29.2543 0.865234C30.7582 0.865234 31.9511 1.42578 32.8329 2.54688C33.7147 3.66797 34.1557 5.16846 34.1557 7.04834V7.74561C34.1557 10.439 33.5473 12.4932 32.3305 13.9082C31.1137 15.3232 29.2987 16.041 26.8856 16.0615H26.5883V14.0005H26.9472C28.4169 13.98 29.5448 13.6279 30.331 12.9443C31.1171 12.2539 31.558 11.1909 31.6537 9.75537ZM29.2543 9.12988C29.7533 9.12988 30.2216 8.98633 30.6591 8.69922C31.0966 8.41211 31.435 8.01562 31.6742 7.50977V6.53564C31.6742 5.43506 31.4486 4.5498 30.9975 3.87988C30.5463 3.20996 29.9618 2.875 29.244 2.875C28.5263 2.875 27.9521 3.17236 27.5214 3.76709C27.0976 4.35498 26.8856 5.1001 26.8856 6.00244C26.8856 6.93896 27.101 7.69434 27.5316 8.26855C27.9623 8.84277 28.5365 9.12988 29.2543 9.12988Z" fill="#152739"/>
</svg>
