<svg width="75" height="13" viewBox="0 0 75 13" fill="none" xmlns="http://www.w3.org/2000/svg">
<path opacity="0.5" d="M7.36865 10H6.14355V1.76074H1.58594V10H0.367188V0.757812H7.36865V10ZM8.94522 6.50244C8.94522 5.82959 9.0764 5.22445 9.33877 4.68701C9.60537 4.14958 9.97354 3.73486 10.4433 3.44287C10.9172 3.15088 11.4568 3.00488 12.0619 3.00488C12.9971 3.00488 13.7525 3.32861 14.328 3.97607C14.9078 4.62354 15.1977 5.4847 15.1977 6.55957V6.64209C15.1977 7.31071 15.0686 7.91162 14.8104 8.44482C14.5565 8.9738 14.1905 9.38639 13.7123 9.68262C13.2383 9.97884 12.6924 10.127 12.0746 10.127C11.1436 10.127 10.3882 9.80322 9.8085 9.15576C9.23298 8.5083 8.94522 7.65137 8.94522 6.58496V6.50244ZM10.1259 6.64209C10.1259 7.40381 10.3015 8.0153 10.6527 8.47656C11.0082 8.93783 11.4822 9.16846 12.0746 9.16846C12.6713 9.16846 13.1452 8.93571 13.4965 8.47021C13.8477 8.00049 14.0233 7.34456 14.0233 6.50244C14.0233 5.74919 13.8435 5.13981 13.4838 4.67432C13.1283 4.20459 12.6544 3.96973 12.0619 3.96973C11.4822 3.96973 11.0146 4.20036 10.6591 4.66162C10.3036 5.12288 10.1259 5.78304 10.1259 6.64209ZM16.0062 9.0415L16.4124 8.54004C16.8694 7.94759 17.1297 7.05892 17.1932 5.87402L17.3011 3.13184H21.7254V9.0415H22.6077V12.0186H21.4334V10H16.6409V12.0186H15.4666L15.4729 9.0415H16.0062ZM17.3963 9.0415H20.5511V4.21729H18.4373L18.3675 5.85498C18.2955 7.22184 17.9718 8.28402 17.3963 9.0415ZM26.6091 10.127C25.6781 10.127 24.9206 9.82227 24.3366 9.21289C23.7526 8.59928 23.4606 7.78044 23.4606 6.75635V6.54053C23.4606 5.85921 23.5897 5.25195 23.8479 4.71875C24.1102 4.18132 24.4742 3.76237 24.9396 3.46191C25.4094 3.15723 25.9172 3.00488 26.4631 3.00488C27.356 3.00488 28.05 3.29899 28.5451 3.88721C29.0402 4.47542 29.2878 5.31755 29.2878 6.41357V6.90234H24.635C24.6519 7.57943 24.8487 8.12744 25.2253 8.54639C25.6062 8.9611 26.0886 9.16846 26.6726 9.16846C27.0873 9.16846 27.4385 9.08382 27.7263 8.91455C28.014 8.74528 28.2658 8.521 28.4816 8.2417L29.1989 8.80029C28.6234 9.68473 27.7601 10.127 26.6091 10.127ZM26.4631 3.96973C25.9891 3.96973 25.5913 4.14323 25.2697 4.49023C24.9481 4.83301 24.7492 5.31543 24.673 5.9375H28.1135V5.84863C28.0796 5.25195 27.9188 4.79069 27.6311 4.46484C27.3433 4.13477 26.954 3.96973 26.4631 3.96973ZM36.1329 3.13184V10H34.9522V4.10303H32.6163L32.4767 6.67383C32.4005 7.85449 32.2016 8.69873 31.88 9.20654C31.5626 9.71436 31.0569 9.97884 30.3629 10H29.8932V8.96533L30.2296 8.93994C30.6104 8.89762 30.8834 8.67757 31.0484 8.27979C31.2135 7.882 31.3193 7.14567 31.3658 6.0708L31.4928 3.13184H36.1329ZM42.3115 3.13184H43.4858V10H42.3115V4.9917L39.144 10H37.9697V3.13184H39.144V8.14648L42.3115 3.13184ZM50.8515 3.13184V10H49.6708V4.10303H47.3349L47.1952 6.67383C47.119 7.85449 46.9201 8.69873 46.5985 9.20654C46.2812 9.71436 45.7755 9.97884 45.0814 10H44.6117V8.96533L44.9481 8.93994C45.329 8.89762 45.602 8.67757 45.767 8.27979C45.932 7.882 46.0378 7.14567 46.0844 6.0708L46.2113 3.13184H50.8515ZM57.0301 3.13184H58.2044V10H57.0301V4.9917L53.8626 10H52.6883V3.13184H53.8626V8.14648L57.0301 3.13184ZM62.6945 9.16846C63.1135 9.16846 63.4795 9.0415 63.7927 8.7876C64.1058 8.53369 64.2793 8.21631 64.3132 7.83545H65.424C65.4029 8.229 65.2674 8.60352 65.0178 8.95898C64.7681 9.31445 64.4338 9.59798 64.0148 9.80957C63.6001 10.0212 63.16 10.127 62.6945 10.127C61.7593 10.127 61.0145 9.81592 60.4602 9.19385C59.91 8.56755 59.635 7.71273 59.635 6.62939V6.43262C59.635 5.764 59.7577 5.16943 60.0031 4.64893C60.2486 4.12842 60.5998 3.72428 61.0568 3.43652C61.5181 3.14876 62.0619 3.00488 62.6882 3.00488C63.4584 3.00488 64.0974 3.23551 64.6052 3.69678C65.1172 4.15804 65.3902 4.75684 65.424 5.49316H64.3132C64.2793 5.04883 64.1101 4.6849 63.8054 4.40137C63.5049 4.11361 63.1325 3.96973 62.6882 3.96973C62.0915 3.96973 61.6281 4.18555 61.298 4.61719C60.9722 5.0446 60.8093 5.66455 60.8093 6.47705V6.69922C60.8093 7.49056 60.9722 8.09993 61.298 8.52734C61.6239 8.95475 62.0894 9.16846 62.6945 9.16846ZM67.8766 5.49951H69.6603C70.4389 5.50798 71.0546 5.7111 71.5074 6.10889C71.9602 6.50667 72.1866 7.04622 72.1866 7.72754C72.1866 8.41309 71.9539 8.96322 71.4884 9.37793C71.0229 9.79264 70.3966 10 69.6095 10H66.7022V3.13184H67.8766V5.49951ZM67.8766 6.45801V9.0415H69.6222C70.0623 9.0415 70.4029 8.92936 70.6441 8.70508C70.8854 8.47656 71.006 8.16553 71.006 7.77197C71.006 7.39111 70.8875 7.08008 70.6505 6.83887C70.4177 6.59342 70.0898 6.46647 69.6666 6.45801H67.8766ZM73.4648 9.38428C73.4648 9.18115 73.5241 9.01188 73.6426 8.87646C73.7653 8.74105 73.9473 8.67334 74.1885 8.67334C74.4297 8.67334 74.6117 8.74105 74.7344 8.87646C74.8613 9.01188 74.9248 9.18115 74.9248 9.38428C74.9248 9.57894 74.8613 9.74186 74.7344 9.87305C74.6117 10.0042 74.4297 10.0698 74.1885 10.0698C73.9473 10.0698 73.7653 10.0042 73.6426 9.87305C73.5241 9.74186 73.4648 9.57894 73.4648 9.38428ZM73.4712 3.7793C73.4712 3.57617 73.5304 3.4069 73.6489 3.27148C73.7716 3.13607 73.9536 3.06836 74.1948 3.06836C74.436 3.06836 74.618 3.13607 74.7407 3.27148C74.8677 3.4069 74.9312 3.57617 74.9312 3.7793C74.9312 3.97396 74.8677 4.13688 74.7407 4.26807C74.618 4.39925 74.436 4.46484 74.1948 4.46484C73.9536 4.46484 73.7716 4.39925 73.6489 4.26807C73.5304 4.13688 73.4712 3.97396 73.4712 3.7793Z" fill="black"/>
</svg>
